<svg width="257" height="79" viewBox="0 0 257 79" fill="none"
    xmlns="http://www.w3.org/2000/svg">
    <rect y="78.8744" width="78.8744" height="77.6528" rx="20" transform="rotate(-90 0 78.8744)" fill="#FF7F23"/>
    <path d="M45.5149 51.0703L68.0595 39.7734V39.1978L45.5149 27.9009V17.9712L78.1552 34.5207V44.4505L45.5149 61V51.0703Z" fill="white"/>
    <path d="M0 44.4505V34.5207L32.6403 17.9712V27.9009L10.0957 39.1978V39.7734L32.6403 51.0703V61L0 44.4505Z" fill="white"/>
    <path d="M45.5149 51.0703L68.0595 39.7734V39.1978L45.5149 27.9009V17.9712L78.1552 34.5207V44.4505L45.5149 61V51.0703Z" fill="white"/>
    <path d="M0 44.4505V34.5207L32.6403 17.9712V27.9009L10.0957 39.1978V39.7734L32.6403 51.0703V61L0 44.4505Z" fill="white"/>
    <path d="M113.566 39.5052C114.992 39.5052 116.201 39.3295 117.193 38.9782C118.205 38.6062 119.032 38.0999 119.673 37.4592C120.313 36.8185 120.778 36.0745 121.068 35.2272C121.357 34.3592 121.502 33.4292 121.502 32.4372C121.502 30.4532 120.851 28.9032 119.549 27.7872C118.267 26.6712 116.273 26.1132 113.566 26.1132H109.35V39.5052H113.566ZM135.824 63.4372H126.338C124.581 63.4372 123.32 62.7759 122.556 61.4532L115.054 48.3402C114.702 47.7822 114.31 47.3792 113.876 47.1312C113.442 46.8625 112.822 46.7282 112.016 46.7282H109.35V63.4372H98.8718V18.2702H113.566C116.831 18.2702 119.611 18.6112 121.905 19.2932C124.219 19.9545 126.1 20.8845 127.547 22.0832C129.014 23.2819 130.078 24.6975 130.74 26.3302C131.401 27.9629 131.732 29.7402 131.732 31.6622C131.732 33.1295 131.535 34.5142 131.143 35.8162C130.75 37.1182 130.171 38.3272 129.407 39.4432C128.642 40.5385 127.691 41.5202 126.555 42.3882C125.439 43.2562 124.147 43.9692 122.68 44.5272C123.362 44.8785 124.002 45.3229 124.602 45.8602C125.201 46.3769 125.738 46.9969 126.214 47.7202L135.824 63.4372ZM156.36 63.4372H145.82V18.2702H156.36V63.4372ZM181.814 26.3302V36.8702H196.012V44.6202H181.814V55.3772H200.352V63.4372H171.274V18.2702H200.352V26.3302H181.814ZM253.997 40.8382C253.997 44.1035 253.428 47.1209 252.292 49.8902C251.176 52.6389 249.595 55.0259 247.549 57.0512C245.503 59.0559 243.033 60.6265 240.14 61.7632C237.267 62.8792 234.074 63.4372 230.561 63.4372H213.015V18.2702H230.561C234.074 18.2702 237.267 18.8385 240.14 19.9752C243.033 21.1119 245.503 22.6825 247.549 24.6872C249.595 26.6919 251.176 29.0789 252.292 31.8482C253.428 34.5969 253.997 37.5935 253.997 40.8382ZM243.271 40.8382C243.271 38.6062 242.981 36.5912 242.403 34.7932C241.824 32.9952 240.987 31.4762 239.892 30.2362C238.817 28.9755 237.494 28.0145 235.924 27.3532C234.353 26.6712 232.565 26.3302 230.561 26.3302H223.555V55.3772H230.561C232.565 55.3772 234.353 55.0465 235.924 54.3852C237.494 53.7032 238.817 52.7422 239.892 51.5022C240.987 50.2415 241.824 48.7122 242.403 46.9142C242.981 45.1162 243.271 43.0909 243.271 40.8382Z" fill="black"/>
</svg>
